ffmpeg started on 2025-05-24 at 15:29:46
Report written to "D:\Convert\FFMetrics\reports\psnr_report-6.txt"
Log level: 32
Command line:
ffmpeg -hide_banner -nostdin -i "G:\\\xc0\xed\xe8\xec\xe5\\\xce\xed\xe3\xee\xe8\xed\xe3\xe8\\!_33_\xc7\xe8\xec\xe0_2024\\DreamCast\\\xd1\xf2\xe0\xed\xee\xe2\xff\xf1\xfc \xe2\xee\xeb\xf8\xe5\xe1\xed\xe8\xf6\xe5\xe9\\[DC] Mahou Shoujo ni Akogarete - 03_Telegram_HEVC.mkv" -i "G:\\\xc0\xed\xe8\xec\xe5\\\xce\xed\xe3\xee\xe8\xed\xe3\xe8\\!_33_\xc7\xe8\xec\xe0_2024\\DreamCast\\\xd1\xf2\xe0\xed\xee\xe2\xff\xf1\xfc \xe2\xee\xeb\xf8\xe5\xe1\xed\xe8\xf6\xe5\xe9\\[DC] Mahou Shoujo ni Akogarete - 03_Telegram.mp4" -lavfi "[0:v]settb=AVTB,setpts=PTS-STARTPTS,format=pix_fmts=yuv420p10,fps=24000/1001,scale=1920:1080:flags=bicubic[main];[1:v]settb=AVTB,setpts=PTS-STARTPTS,format=pix_fmts=yuv420p,fps=24000/1001,scale=1920:1080:flags=bicubic[ref];[main][ref]psnr=eof_action=endall:stats_file='D\\:/Convert/FFMetrics/logs/psnr_logfile-6.txt'" -f null -
Input #0, matroska,webm, from 'G:\Аниме\Онгоинги\!_33_Зима_2024\DreamCast\Становясь волшебницей\[DC] Mahou Shoujo ni Akogarete - 03_Telegram_HEVC.mkv':
  Metadata:
    COMPATIBLE_BRANDS: isomiso2avc1mp41
    MAJOR_BRAND     : isom
    MINOR_VERSION   : 512
    ENCODER         : Lavf61.7.100
  Duration: 00:23:49.16, start: -0.021000, bitrate: 1232 kb/s
  Stream #0:0: Video: hevc (Main 10), yuv420p10le(tv, bt709, progressive), 1920x1080 [SAR 1:1 DAR 16:9], 23.98 fps, 23.98 tbr, 1k tbn (default)
      Metadata:
        HANDLER_NAME    : VideoHandler
        VENDOR_ID       : [0][0][0][0]
        ENCODER         : Lavc61.19.100 libx265
        BPS             : 1034409
        DURATION        : 00:23:49.010708333
        NUMBER_OF_FRAMES: 34262
        NUMBER_OF_BYTES : 184772625
        _STATISTICS_WRITING_APP: mkvpropedit v66.0.0 ('Josie') 64-bit
        _STATISTICS_WRITING_DATE_UTC: 2025-05-24 09:20:57
        _STATISTICS_TAGS: BPS DURATION NUMBER_OF_FRAMES NUMBER_OF_BYTES
  Stream #0:1: Audio: aac (LC), 48000 Hz, stereo, fltp (default)
      Metadata:
        HANDLER_NAME    : SoundHandler
        VENDOR_ID       : [0][0][0][0]
        ENCODER         : Lavc61.19.100 aac
        BPS             : 193710
        DURATION        : 00:23:49.162000000
        NUMBER_OF_FRAMES: 66993
        NUMBER_OF_BYTES : 34605429
        _STATISTICS_WRITING_APP: mkvpropedit v66.0.0 ('Josie') 64-bit
        _STATISTICS_WRITING_DATE_UTC: 2025-05-24 09:20:57
        _STATISTICS_TAGS: BPS DURATION NUMBER_OF_FRAMES NUMBER_OF_BYTES
Input #1, mov,mp4,m4a,3gp,3g2,mj2, from 'G:\Аниме\Онгоинги\!_33_Зима_2024\DreamCast\Становясь волшебницей\[DC] Mahou Shoujo ni Akogarete - 03_Telegram.mp4':
  Metadata:
    major_brand     : isom
    minor_version   : 512
    compatible_brands: isomiso2avc1mp41
    encoder         : Lavf60.16.100
  Duration: 00:23:49.12, start: 0.000000, bitrate: 3725 kb/s
  Stream #1:0[0x1](und): Video: h264 (High) (avc1 / 0x31637661), yuv420p(tv, bt709, progressive), 1920x1080 [SAR 1:1 DAR 16:9], 3577 kb/s, 23.98 fps, 23.98 tbr, 24k tbn (default)
      Metadata:
        handler_name    : VideoHandler
        vendor_id       : [0][0][0][0]
        encoder         : Lavc60.31.102 h264_qsv
  Stream #1:1[0x2](und): Audio: aac (HE-AACv2) (mp4a / 0x6134706D), 48000 Hz, stereo, fltp, 144 kb/s (default)
      Metadata:
        handler_name    : SoundHandler
        vendor_id       : [0][0][0][0]
Stream mapping:
  Stream #0:0 (hevc) -> settb:default
  Stream #1:0 (h264) -> settb:default
  psnr:default -> Stream #0:0 (wrapped_avframe)
  Stream #0:1 -> #0:1 (aac (native) -> pcm_s16le (native))
Output #0, null, to 'pipe:':
  Metadata:
    COMPATIBLE_BRANDS: isomiso2avc1mp41
    MAJOR_BRAND     : isom
    MINOR_VERSION   : 512
    encoder         : Lavf61.7.100
  Stream #0:0: Video: wrapped_avframe, yuv420p10le(tv, bt709, progressive), 1920x1080 [SAR 1:1 DAR 16:9], q=2-31, 200 kb/s, 23.98 fps, 23.98 tbn
      Metadata:
        encoder         : Lavc61.19.100 wrapped_avframe
  Stream #0:1: Audio: pcm_s16le, 48000 Hz, stereo, s16, 1536 kb/s (default)
      Metadata:
        HANDLER_NAME    : SoundHandler
        VENDOR_ID       : [0][0][0][0]
        _STATISTICS_TAGS: BPS DURATION NUMBER_OF_FRAMES NUMBER_OF_BYTES
        BPS             : 193710
        DURATION        : 00:23:49.162000000
        NUMBER_OF_FRAMES: 66993
        NUMBER_OF_BYTES : 34605429
        _STATISTICS_WRITING_APP: mkvpropedit v66.0.0 ('Josie') 64-bit
        _STATISTICS_WRITING_DATE_UTC: 2025-05-24 09:20:57
        encoder         : Lavc61.19.100 pcm_s16le
frame=  180 fps=0.0 q=-0.0 size=N/A time=00:00:07.50 bitrate=N/A speed=14.9x    frame=  455 fps=442 q=-0.0 size=N/A time=00:00:18.97 bitrate=N/A speed=18.5x    frame=  726 fps=472 q=-0.0 size=N/A time=00:00:30.28 bitrate=N/A speed=19.7x    frame=  978 fps=477 q=-0.0 size=N/A time=00:00:40.79 bitrate=N/A speed=19.9x    frame= 1243 fps=483 q=-0.0 size=N/A time=00:00:51.84 bitrate=N/A speed=20.1x    frame= 1504 fps=487 q=-0.0 size=N/A time=00:01:02.72 bitrate=N/A speed=20.3x    frame= 1768 fps=492 q=-0.0 size=N/A time=00:01:13.74 bitrate=N/A speed=20.5x    frame= 2046 fps=496 q=-0.0 size=N/A time=00:01:25.33 bitrate=N/A speed=20.7x    frame= 2292 fps=495 q=-0.0 size=N/A time=00:01:35.59 bitrate=N/A speed=20.6x    frame= 2543 fps=494 q=-0.0 size=N/A time=00:01:46.06 bitrate=N/A speed=20.6x    frame= 2806 fps=495 q=-0.0 size=N/A time=00:01:57.03 bitrate=N/A speed=20.6x    frame= 2986 fps=483 q=-0.0 size=N/A time=00:02:04.54 bitrate=N/A speed=20.1x    frame= 3230 fps=482 q=-0.0 size=N/A time=00:02:14.71 bitrate=N/A speed=20.1x    frame= 3438 fps=477 q=-0.0 size=N/A time=00:02:23.39 bitrate=N/A speed=19.9x    frame= 3653 fps=473 q=-0.0 size=N/A time=00:02:32.36 bitrate=N/A speed=19.7x    frame= 3896 fps=473 q=-0.0 size=N/A time=00:02:42.49 bitrate=N/A speed=19.7x    frame= 4054 fps=463 q=-0.0 size=N/A time=00:02:49.08 bitrate=N/A speed=19.3x    frame= 4229 fps=456 q=-0.0 size=N/A time=00:02:56.38 bitrate=N/A speed=  19x    frame= 4432 fps=453 q=-0.0 size=N/A time=00:03:04.85 bitrate=N/A speed=18.9x    frame= 4563 fps=443 q=-0.0 size=N/A time=00:03:10.31 bitrate=N/A speed=18.5x    frame= 4752 fps=439 q=-0.0 size=N/A time=00:03:18.19 bitrate=N/A speed=18.3x    frame= 4994 fps=441 q=-0.0 size=N/A time=00:03:28.29 bitrate=N/A speed=18.4x    frame= 5247 fps=443 q=-0.0 size=N/A time=00:03:38.84 bitrate=N/A speed=18.5x    frame= 5516 fps=446 q=-0.0 size=N/A time=00:03:50.06 bitrate=N/A speed=18.6x    frame= 5764 fps=448 q=-0.0 size=N/A time=00:04:00.40 bitrate=N/A speed=18.7x    frame= 5935 fps=443 q=-0.0 size=N/A time=00:04:07.53 bitrate=N/A speed=18.5x    frame= 6133 fps=441 q=-0.0 size=N/A time=00:04:15.79 bitrate=N/A speed=18.4x    frame= 6387 fps=443 q=-0.0 size=N/A time=00:04:26.39 bitrate=N/A speed=18.5x    frame= 6614 fps=442 q=-0.0 size=N/A time=00:04:35.85 bitrate=N/A speed=18.4x    frame= 6850 fps=443 q=-0.0 size=N/A time=00:04:45.70 bitrate=N/A speed=18.5x    frame= 7075 fps=443 q=-0.0 size=N/A time=00:04:55.08 bitrate=N/A speed=18.5x    frame= 7332 fps=444 q=-0.0 size=N/A time=00:05:05.80 bitrate=N/A speed=18.5x    frame= 7578 fps=446 q=-0.0 size=N/A time=00:05:16.06 bitrate=N/A speed=18.6x    frame= 7833 fps=447 q=-0.0 size=N/A time=00:05:26.70 bitrate=N/A speed=18.6x    frame= 8059 fps=447 q=-0.0 size=N/A time=00:05:36.12 bitrate=N/A speed=18.6x    frame= 8305 fps=448 q=-0.0 size=N/A time=00:05:46.38 bitrate=N/A speed=18.7x    frame= 8480 fps=444 q=-0.0 size=N/A time=00:05:53.68 bitrate=N/A speed=18.5x    frame= 8710 fps=445 q=-0.0 size=N/A time=00:06:03.27 bitrate=N/A speed=18.5x    frame= 8948 fps=445 q=-0.0 size=N/A time=00:06:13.20 bitrate=N/A speed=18.6x    frame= 9216 fps=447 q=-0.0 size=N/A time=00:06:24.38 bitrate=N/A speed=18.6x    frame= 9470 fps=448 q=-0.0 size=N/A time=00:06:34.97 bitrate=N/A speed=18.7x    frame= 9712 fps=449 q=-0.0 size=N/A time=00:06:45.07 bitrate=N/A speed=18.7x    frame= 9962 fps=449 q=-0.0 size=N/A time=00:06:55.49 bitrate=N/A speed=18.7x    frame=10199 fps=450 q=-0.0 size=N/A time=00:07:05.38 bitrate=N/A speed=18.8x    frame=10439 fps=450 q=-0.0 size=N/A time=00:07:15.39 bitrate=N/A speed=18.8x    frame=10674 fps=450 q=-0.0 size=N/A time=00:07:25.19 bitrate=N/A speed=18.8x    frame=10910 fps=450 q=-0.0 size=N/A time=00:07:35.03 bitrate=N/A speed=18.8x    frame=11149 fps=451 q=-0.0 size=N/A time=00:07:45.00 bitrate=N/A speed=18.8x    frame=11397 fps=451 q=-0.0 size=N/A time=00:07:55.34 bitrate=N/A speed=18.8x    frame=11606 fps=450 q=-0.0 size=N/A time=00:08:04.06 bitrate=N/A speed=18.8x    frame=11852 fps=451 q=-0.0 size=N/A time=00:08:14.32 bitrate=N/A speed=18.8x    frame=12104 fps=451 q=-0.0 size=N/A time=00:08:24.83 bitrate=N/A speed=18.8x    frame=12357 fps=452 q=-0.0 size=N/A time=00:08:35.43 bitrate=N/A speed=18.9x    frame=12637 fps=454 q=-0.0 size=N/A time=00:08:47.06 bitrate=N/A speed=18.9x    frame=12877 fps=454 q=-0.0 size=N/A time=00:08:57.07 bitrate=N/A speed=18.9x    frame=13142 fps=455 q=-0.0 size=N/A time=00:09:08.13 bitrate=N/A speed=  19x    frame=13397 fps=456 q=-0.0 size=N/A time=00:09:18.76 bitrate=N/A speed=  19x    frame=13658 fps=457 q=-0.0 size=N/A time=00:09:29.65 bitrate=N/A speed=19.1x    frame=13890 fps=457 q=-0.0 size=N/A time=00:09:39.32 bitrate=N/A speed=  19x    frame=14103 fps=456 q=-0.0 size=N/A time=00:09:48.21 bitrate=N/A speed=  19x    frame=14347 fps=456 q=-0.0 size=N/A time=00:09:58.38 bitrate=N/A speed=  19x    frame=14619 fps=457 q=-0.0 size=N/A time=00:10:09.73 bitrate=N/A speed=19.1x    frame=14884 fps=458 q=-0.0 size=N/A time=00:10:20.78 bitrate=N/A speed=19.1x    frame=15141 fps=459 q=-0.0 size=N/A time=00:10:31.50 bitrate=N/A speed=19.1x    frame=15352 fps=458 q=-0.0 size=N/A time=00:10:40.30 bitrate=N/A speed=19.1x    frame=15603 fps=459 q=-0.0 size=N/A time=00:10:50.77 bitrate=N/A speed=19.1x    frame=15804 fps=458 q=-0.0 size=N/A time=00:10:59.15 bitrate=N/A speed=19.1x    frame=16075 fps=459 q=-0.0 size=N/A time=00:11:10.46 bitrate=N/A speed=19.1x    frame=16337 fps=459 q=-0.0 size=N/A time=00:11:21.38 bitrate=N/A speed=19.2x    frame=16596 fps=460 q=-0.0 size=N/A time=00:11:32.19 bitrate=N/A speed=19.2x    frame=16862 fps=460 q=-0.0 size=N/A time=00:11:43.28 bitrate=N/A speed=19.2x    frame=17142 fps=462 q=-0.0 size=N/A time=00:11:54.96 bitrate=N/A speed=19.3x    frame=17405 fps=462 q=-0.0 size=N/A time=00:12:05.93 bitrate=N/A speed=19.3x    frame=17649 fps=462 q=-0.0 size=N/A time=00:12:16.11 bitrate=N/A speed=19.3x    frame=17908 fps=463 q=-0.0 size=N/A time=00:12:26.91 bitrate=N/A speed=19.3x    frame=18165 fps=463 q=-0.0 size=N/A time=00:12:37.63 bitrate=N/A speed=19.3x    frame=18418 fps=464 q=-0.0 size=N/A time=00:12:48.18 bitrate=N/A speed=19.3x    frame=18682 fps=464 q=-0.0 size=N/A time=00:12:59.19 bitrate=N/A speed=19.4x    frame=18939 fps=465 q=-0.0 size=N/A time=00:13:09.91 bitrate=N/A speed=19.4x    frame=19196 fps=465 q=-0.0 size=N/A time=00:13:20.63 bitrate=N/A speed=19.4x    frame=19456 fps=466 q=-0.0 size=N/A time=00:13:31.51 bitrate=N/A speed=19.4x    frame=19716 fps=466 q=-0.0 size=N/A time=00:13:42.32 bitrate=N/A speed=19.4x    frame=19983 fps=467 q=-0.0 size=N/A time=00:13:53.45 bitrate=N/A speed=19.5x    frame=20235 fps=467 q=-0.0 size=N/A time=00:14:03.96 bitrate=N/A speed=19.5x    frame=20495 fps=468 q=-0.0 size=N/A time=00:14:14.81 bitrate=N/A speed=19.5x    frame=20772 fps=468 q=-0.0 size=N/A time=00:14:26.36 bitrate=N/A speed=19.5x    frame=21027 fps=469 q=-0.0 size=N/A time=00:14:37.00 bitrate=N/A speed=19.5x    frame=21294 fps=469 q=-0.0 size=N/A time=00:14:48.13 bitrate=N/A speed=19.6x    frame=21524 fps=469 q=-0.0 size=N/A time=00:14:57.73 bitrate=N/A speed=19.6x    frame=21803 fps=470 q=-0.0 size=N/A time=00:15:09.36 bitrate=N/A speed=19.6x    frame=22036 fps=470 q=-0.0 size=N/A time=00:15:19.08 bitrate=N/A speed=19.6x    frame=22248 fps=469 q=-0.0 size=N/A time=00:15:27.92 bitrate=N/A speed=19.6x    frame=22502 fps=469 q=-0.0 size=N/A time=00:15:38.52 bitrate=N/A speed=19.6x    frame=22739 fps=469 q=-0.0 size=N/A time=00:15:48.40 bitrate=N/A speed=19.6x    frame=22930 fps=468 q=-0.0 size=N/A time=00:15:56.37 bitrate=N/A speed=19.5x    frame=23155 fps=468 q=-0.0 size=N/A time=00:16:05.75 bitrate=N/A speed=19.5x    frame=23410 fps=468 q=-0.0 size=N/A time=00:16:16.39 bitrate=N/A speed=19.5x    frame=23679 fps=469 q=-0.0 size=N/A time=00:16:27.61 bitrate=N/A speed=19.5x    frame=23922 fps=469 q=-0.0 size=N/A time=00:16:37.74 bitrate=N/A speed=19.5x    frame=24174 fps=469 q=-0.0 size=N/A time=00:16:48.25 bitrate=N/A speed=19.6x    frame=24387 fps=468 q=-0.0 size=N/A time=00:16:57.14 bitrate=N/A speed=19.5x    frame=24639 fps=468 q=-0.0 size=N/A time=00:17:07.65 bitrate=N/A speed=19.5x    frame=24852 fps=468 q=-0.0 size=N/A time=00:17:16.53 bitrate=N/A speed=19.5x    frame=25090 fps=468 q=-0.0 size=N/A time=00:17:26.46 bitrate=N/A speed=19.5x    frame=25332 fps=468 q=-0.0 size=N/A time=00:17:36.55 bitrate=N/A speed=19.5x    frame=25589 fps=468 q=-0.0 size=N/A time=00:17:47.27 bitrate=N/A speed=19.5x    frame=25832 fps=468 q=-0.0 size=N/A time=00:17:57.40 bitrate=N/A speed=19.5x    frame=26062 fps=468 q=-0.0 size=N/A time=00:18:07.00 bitrate=N/A speed=19.5x    frame=26267 fps=467 q=-0.0 size=N/A time=00:18:15.55 bitrate=N/A speed=19.5x    frame=26470 fps=466 q=-0.0 size=N/A time=00:18:24.01 bitrate=N/A speed=19.5x    frame=26707 fps=466 q=-0.0 size=N/A time=00:18:33.90 bitrate=N/A speed=19.5x    frame=26914 fps=466 q=-0.0 size=N/A time=00:18:42.53 bitrate=N/A speed=19.4x    frame=27154 fps=466 q=-0.0 size=N/A time=00:18:52.54 bitrate=N/A speed=19.4x    frame=27406 fps=466 q=-0.0 size=N/A time=00:19:03.05 bitrate=N/A speed=19.4x    frame=27608 fps=465 q=-0.0 size=N/A time=00:19:11.48 bitrate=N/A speed=19.4x    frame=27827 fps=465 q=-0.0 size=N/A time=00:19:20.61 bitrate=N/A speed=19.4x    frame=28035 fps=464 q=-0.0 size=N/A time=00:19:29.29 bitrate=N/A speed=19.4x    frame=28249 fps=464 q=-0.0 size=N/A time=00:19:38.21 bitrate=N/A speed=19.4x    frame=28468 fps=464 q=-0.0 size=N/A time=00:19:47.35 bitrate=N/A speed=19.3x    frame=28728 fps=464 q=-0.0 size=N/A time=00:19:58.19 bitrate=N/A speed=19.4x    frame=28987 fps=464 q=-0.0 size=N/A time=00:20:08.99 bitrate=N/A speed=19.4x    frame=29194 fps=464 q=-0.0 size=N/A time=00:20:17.63 bitrate=N/A speed=19.3x    frame=29436 fps=464 q=-0.0 size=N/A time=00:20:27.72 bitrate=N/A speed=19.4x    frame=29694 fps=464 q=-0.0 size=N/A time=00:20:38.48 bitrate=N/A speed=19.4x    frame=29954 fps=465 q=-0.0 size=N/A time=00:20:49.33 bitrate=N/A speed=19.4x    frame=30211 fps=465 q=-0.0 size=N/A time=00:21:00.05 bitrate=N/A speed=19.4x    frame=30482 fps=465 q=-0.0 size=N/A time=00:21:11.35 bitrate=N/A speed=19.4x    frame=30778 fps=466 q=-0.0 size=N/A time=00:21:23.69 bitrate=N/A speed=19.4x    frame=31034 fps=466 q=-0.0 size=N/A time=00:21:34.37 bitrate=N/A speed=19.5x    frame=31282 fps=467 q=-0.0 size=N/A time=00:21:44.72 bitrate=N/A speed=19.5x    frame=31525 fps=467 q=-0.0 size=N/A time=00:21:54.85 bitrate=N/A speed=19.5x    frame=31782 fps=467 q=-0.0 size=N/A time=00:22:05.57 bitrate=N/A speed=19.5x    frame=32027 fps=467 q=-0.0 size=N/A time=00:22:15.79 bitrate=N/A speed=19.5x    frame=32298 fps=467 q=-0.0 size=N/A time=00:22:27.09 bitrate=N/A speed=19.5x    frame=32562 fps=468 q=-0.0 size=N/A time=00:22:38.10 bitrate=N/A speed=19.5x    frame=32804 fps=468 q=-0.0 size=N/A time=00:22:48.20 bitrate=N/A speed=19.5x    frame=33046 fps=468 q=-0.0 size=N/A time=00:22:58.29 bitrate=N/A speed=19.5x    frame=33282 fps=468 q=-0.0 size=N/A time=00:23:08.13 bitrate=N/A speed=19.5x    frame=33534 fps=468 q=-0.0 size=N/A time=00:23:18.64 bitrate=N/A speed=19.5x    frame=33791 fps=468 q=-0.0 size=N/A time=00:23:29.36 bitrate=N/A speed=19.5x    frame=34011 fps=468 q=-0.0 size=N/A time=00:23:38.54 bitrate=N/A speed=19.5x    [Parsed_psnr_10 @ 000001a76c6f6500] PSNR y:48.016575 u:50.430846 v:50.384233 average:48.677239 min:39.803355 max:inf
[out#0/null @ 000001a75f653b80] video:14722KiB audio:267972KiB subtitle:0KiB other streams:0KiB global headers:0KiB muxing overhead: unknown
frame=34262 fps=468 q=-0.0 Lsize=N/A time=00:23:49.01 bitrate=N/A speed=19.5x    
